<?xml version="1.0" encoding="utf-8"?>
<!-- Generator: Adobe Illustrator 23.1.0, SVG Export Plug-In . SVG Version: 6.00 Build 0)  -->
<svg version="1.1" id="Layer_1" xmlns="http://www.w3.org/2000/svg" xmlns:xlink="http://www.w3.org/1999/xlink" x="0px" y="0px"
	 viewBox="0 0 134.9 24.9" style="enable-background:new 0 0 134.9 24.9;" xml:space="preserve">
<style type="text/css">
	.st0{fill:#E4032E;}
	.st1{fill-rule:evenodd;clip-rule:evenodd;fill:#E4032E;}
</style>
<g>
	<g>
		<g>
			<path class="st0" d="M62.5,22.6c0,0.8-0.3,0.8-1,0.8h-0.2l-0.2-0.1c-0.2-0.1-0.4-0.2-0.6-0.4l-0.1-0.1l-0.1-0.2c0,0,0,0,0-0.1
				c-0.1-0.3-0.2-0.7-0.3-1c-0.1-0.4-0.2-0.7-0.2-0.9v0c-0.4-1.6-0.5-2.9-0.5-3.8c0-0.3-0.1-0.6-0.1-1c-0.1-0.6-0.2-1.3-0.2-1.9V6.4
				h1.4c1,0,1.6,0.6,1.7,1.9l0,0.1v3.5c-0.1,1.1-0.1,1.5-0.1,1.5v3.9C62.1,18.5,62.2,20.3,62.5,22.6L62.5,22.6L62.5,22.6L62.5,22.6
				L62.5,22.6z M19.4,2.4c0,0.3-0.3,0.9-1,2.3l0,0l0,0c-0.7,1.3-1.1,2-1.4,2.5c-0.1,0.1,0,0.1,0,0l-0.2,0.4C16.4,8.2,16,9,15.4,10.1
				c-0.1,0.4-0.3,0.9-0.6,1.4c-0.3,0.5-0.6,1.1-0.9,1.7l0,0l-0.2,0.4c-0.1,0.2-0.2,0.3-0.2,0.4c-0.4,0.7-0.8,1.4-1.3,2
				c-0.2,0.5-0.5,1.1-0.8,1.8c-0.2,0.4-0.4,0.8-0.4,0.9l0,0.1c-0.5,0.8-1,1.2-1.6,1.2c-0.1,0-0.1,0-0.2,0v0c-0.1,0-0.2-0.1-0.3-0.2
				c-0.1,0-0.1-0.1-0.2-0.2c-0.4-0.4-1.3-1.3-2.6-2.7c-1.9-1.9-3.3-3.5-4.2-4.8c-1-1.3-1.6-2.4-1.6-3c0-0.2,0-0.4,0.2-0.6v0
				c0.1-0.1,0.2-0.2,0.3-0.3c0.2-0.2,0.4-0.3,0.7-0.3h1.3l0.2,0.4c0.2,0.4,0.6,1.1,1.1,1.8l0.8,1.3c0.1,0.2,0.2,0.3,0.4,0.5
				C5,12,5.2,12.2,5.4,12.5c0.8,0.9,1.9,2,3.4,3.4l9.1-14.3l0.5-0.8L19,1.4C19.4,1.7,19.4,2,19.4,2.4z M59,2.1c0-0.5,0.2-1,0.5-1.3
				c0.3-0.4,0.8-0.6,1.3-0.6h0c0.5,0,1,0.2,1.3,0.6c0.3,0.3,0.6,0.8,0.6,1.3v0c0,0.5-0.2,1-0.6,1.3C61.8,3.8,61.4,4,60.9,4h0
				c-0.5,0-1-0.2-1.3-0.5C59.2,3.1,59,2.7,59,2.1L59,2.1L59,2.1z M36,19.9c0-0.1,0-0.1,0-0.1v-0.2l-0.1-0.2
				c-0.8-1.1-1.6-2.3-2.5-3.5c-0.8-1.1-1.6-2.2-2.5-3.5c-1-1.4-1.9-2.7-2.6-3.8c-0.8-1.2-1.4-2.2-2-3.1l-0.1-0.1L26,5.1
				c-0.4-0.2-0.8-0.4-1-0.4c-0.3,0-0.5,0-0.8,0.1c-0.3,0.1-0.5,0.4-0.7,0.7c-0.2,0.7-0.4,1.3-0.6,1.8c-0.2,0.5-0.3,0.9-0.4,1.2
				c-0.5,1.3-0.9,2.3-1.3,3.1c-0.3,0.7-0.6,1.3-0.9,1.7c-0.2,0.2-0.3,0.3-0.4,0.3l-0.3,0.1l-0.1,0.3c-0.2,0.7-0.1,0.2-0.2,0.5
				c-0.3,0.9-0.5,1.4-0.6,1.6l0,0l0,0.1c-0.7,1.5-1.1,2.4-1.1,2.4l-0.1,0.2V19c0,0.3,0.1,0.6,0.2,0.8l0.1,0.1L18,20
				c0.1,0.1,0.3,0.3,0.5,0.4c0.2,0.1,0.5,0.2,0.8,0.2c0.7,0,1.5-1,2.1-2.9c0.4-1.2,0.7-1.8,0.9-1.8h7.6l4.9,4.9l1.3,1.3v-1.8
				C36,20.1,36,20,36,19.9z M23.6,13.1l1.6-3.9l3.1,4.3C28.3,13.5,23.6,13.1,23.6,13.1z M83.8,19.9c0-0.1,0-0.1,0-0.1v-0.2l-0.1-0.2
				c-0.8-1.1-1.6-2.3-2.5-3.5c-0.8-1.1-1.6-2.2-2.5-3.5c-1-1.4-1.9-2.7-2.6-3.8c-0.8-1.2-1.4-2.2-2-3.1L74,5.2l-0.1-0.1
				c-0.4-0.2-0.8-0.4-1-0.4c-0.3,0-0.5,0-0.8,0.1c-0.3,0.1-0.5,0.4-0.7,0.7c-0.2,0.7-0.4,1.3-0.6,1.8c-0.2,0.5-0.3,0.9-0.4,1.2
				c-0.5,1.3-0.9,2.3-1.3,3.1c-0.3,0.7-0.6,1.3-0.9,1.7c-0.2,0.2-0.3,0.3-0.4,0.3l-0.3,0.1l-0.1,0.3c-0.2,0.7-0.1,0.2-0.2,0.5
				c-0.3,0.9-0.5,1.4-0.6,1.6l0,0l0,0.1c-0.7,1.5-1.1,2.4-1.1,2.4l-0.1,0.2v0.2c0,0.3,0.1,0.6,0.2,0.8l0.1,0.1l0.1,0.1
				c0.2,0.1,0.3,0.3,0.5,0.4c0.2,0.1,0.5,0.2,0.8,0.2c0.7,0,1.4-1,2.1-2.9c0.4-1.2,0.7-1.8,0.9-1.8h7.6l4.9,4.9l1.3,1.3v-1.8
				C83.9,20.2,83.8,20,83.8,19.9L83.8,19.9z M71.4,13.2L73,9.3l3.1,4.3L71.4,13.2z M102.4,2l0,14.8c0,0.4-0.1,0.9-0.4,1.4v0h0v0
				c0,0.1-0.1,0.1-0.1,0.2c0,0-0.1,0.1-0.1,0.1c-0.3,0.3-0.6,0.4-1,0.4c-0.2,0-0.5-0.1-1-0.3l-0.1-0.1l-0.1-0.1c0,0,0,0-0.1-0.1
				c0,0-0.1-0.1-0.1-0.1c-0.1-0.1-0.2-0.1-0.2-0.2c-0.6-0.2-1.2-0.6-2-1c-0.7-0.5-1.5-1-2.5-1.7c-0.8-0.6-1.5-1.1-2.2-1.6
				c-1.1-0.8-2.2-1.7-3.4-2.5c-0.6-0.4-1.1-0.7-1.6-1.1l0.2,4.6v0c0,0.1,0,0.3,0.1,0.5c0,0,0,0.1,0,0.1c0,0.2,0.1,0.4,0.2,0.7
				c0.2,0.6,0.4,1.1,0.5,1.2l0.2,0.2l-0.3,1.8c-0.3,0.1-0.6,0.1-0.9,0.1c-0.5,0-0.9-0.2-1.3-0.7l0,0l0,0c-0.2-0.2-0.3-0.4-0.4-0.6
				c-0.1-0.2-0.2-0.4-0.3-0.6l0,0l0,0c0-0.1,0-0.2-0.1-0.5c0-0.2-0.1-0.4-0.1-0.6c-0.2-1-0.3-2.3-0.4-3.6v0c0-0.7-0.1-1.4-0.1-2.2
				c0-0.4-0.2-2.1-0.2-2.2c-0.1,0-0.3-1-0.3-1.1v0c0-0.3,0.1-0.6,0.4-0.8c0,0,0.1-0.1,0.1-0.1c0.2-0.2,0.5-0.4,1-0.6L86,5.7l0.3,0.2
				L99.1,15l1.8-13c0-0.5,0-0.8,0-1.3c0-0.2,0.1-0.5,0.2-0.6c0.8-0.2,1.1,0,1.2,0.6C102.3,0.7,102.4,2,102.4,2z M101.9,18.2
				C101.9,18.2,101.9,18.2,101.9,18.2z M57,7.9l0-0.1c-0.1-0.2-0.2-0.4-0.3-0.6L56.5,7l-0.3-0.1c-0.8-0.2-2-0.5-3.5-0.7l0,0
				C52.1,6,51.7,6,51.4,5.9c-0.5-0.1-0.9-0.2-1.1-0.2l-6.5-0.3h0c-2.3,0-3.5,1-3.5,2.9v0c0,0.1,0,0.3,0.1,0.5c0,0.2,0.1,0.4,0.1,0.6
				v0c0,0.2,0.1,0.5,0.1,0.7v0c0,0.1,0,0.2,0,0.2v3.3c0,0.4,0,0.8,0.1,1.2c0,0.2,0.1,0.4,0.1,0.6c-1.4,0.5-2.5,0.8-3.3,1.1l-0.8,0.3
				l-1.5,0.5l1.3,0.9h0c0,0,0.1,0.1,0.2,0.1c0.1,0,0.1,0.1,0.2,0.1c0.3,0.1,0.7,0.3,1.2,0.3c0.3,0,0.8-0.1,1.4-0.2
				c0.4-0.1,1-0.2,1.6-0.4c0,0.1,0.1,0.3,0.1,0.4c0.1,0.6,0.3,1.4,0.5,2.1c0,0.2,0.1,0.4,0.1,0.6c0,0.2,0.1,0.4,0.1,0.6
				c0.3,1,0.7,1.9,1.1,2.5l0.5,0.7l0.6-0.6c0.3-0.3,0.5-0.7,0.5-1.2v0l0-0.1L43.8,17c0,0,0.1,0,0.2,0l0,0c0.3-0.1,0.7-0.2,1-0.3
				c0.2-0.1,0.4-0.1,0.5-0.2l0,0l0,0c0.3-0.1,0.6-0.2,1-0.4c0.3-0.1,0.6-0.2,0.9-0.3c1.4-0.6,2.5-1.1,3.1-1.5c0.5-0.3,1-0.6,1.3-0.8
				c0.2-0.2,0.5-0.3,0.6-0.4c0.4-0.2,0.8-0.4,1.2-0.7c0.4-0.3,0.8-0.5,1.2-0.9c0.2-0.1,0.4-0.3,0.5-0.4c0.2-0.1,0.4-0.3,0.5-0.4
				c0.9-0.8,1.3-1.6,1.3-2.2v0C57.1,8.3,57,8.1,57,7.9L57,7.9z M51.4,10.4c-0.8,0.7-1.8,1.3-2.8,1.8c-0.5,0.2-2.1,0.9-5,2.1V8.5
				c0.2,0,0.5-0.1,0.7-0.1c0.1,0,0.1,0,0.3,0c0.5-0.1,1.1-0.1,1.6-0.1l6.6,0.9C52.3,9.6,51.9,10,51.4,10.4z"/>
			<path class="st0" d="M40.8,17.2C40.8,17.2,40.8,17.2,40.8,17.2L40.8,17.2L40.8,17.2z M127.5,11.2c0,1.2-0.6,2.4-1.6,3.5l0,0h0
				c-0.1,0.1-0.3,0.3-0.4,0.4c-0.1,0.1-0.3,0.2-0.4,0.3c-0.7,0.6-1.6,1.1-2.6,1.5l0,0c-1.2,0.5-2.2,0.9-3.1,1.2
				c-0.9,0.3-1.6,0.5-2.3,0.6c-0.4,0.1-0.9,0.1-1.5,0.2c-0.6,0-1.2,0.1-2,0.1c-0.5,0-1.1,0-1.7-0.1c-0.6-0.1-1.2-0.2-1.8-0.3l-0.2,0
				l-0.2-0.2c0,0,0,0-0.1-0.1c-0.5-0.1-1-0.4-1.5-0.7c-0.6-0.3-1.1-0.8-1.6-1.3l0,0c-0.5-0.6-0.8-1.1-1.1-1.7
				c-0.3-0.6-0.4-1.2-0.4-1.8c0-0.6,0.2-1.2,0.7-1.9c0.1-0.1,0.2-0.2,0.2-0.3c0.4-0.5,0.9-1.1,1.7-1.8l0,0c0.7-0.5,1.4-1.1,2.2-1.5
				c0.8-0.5,1.8-0.9,2.8-1.3l0,0l0,0c0.3-0.1,0.5-0.2,0.8-0.3c0.3-0.1,0.5-0.2,0.8-0.2c1.3-0.4,2.5-0.6,3.6-0.6
				c0.1,0,0.5,0.1,1.2,0.3l0,0c0.3,0.1,0.6,0.2,0.9,0.2l0.2,0.1c1.6,0.3,3.1,0.8,4.5,1.8v0C126.5,8.2,127.5,9.6,127.5,11.2
				L127.5,11.2z M124.3,11.4c0-0.5-0.3-1.2-0.8-1.8l0,0c-0.3-0.4-0.6-0.7-0.8-0.8c-0.2-0.1-0.5-0.2-0.7-0.2c-0.1,0-0.3,0.1-0.5,0.2
				l-0.4,0.3l-0.4-0.2h0l0,0c-0.1,0-0.1-0.1-0.2-0.1c-0.1,0-0.1-0.1-0.1-0.1l0,0c-0.2-0.2-0.3-0.4-0.3-0.6l0,0
				c-0.2-0.1-0.5-0.2-0.9-0.3l-0.1,0l0,0l0,0c-0.1,0-0.2-0.1-0.3-0.1c-0.1,0-0.2,0-0.3-0.1c-0.4-0.1-0.8-0.1-1-0.1
				c-0.4,0-0.9,0-1.4,0.1c-0.5,0.1-1.1,0.2-1.8,0.4h0c-0.2,0.1-0.3,0.1-0.5,0.2l-0.5,0.2c-0.8,0.3-1.5,0.6-2,0.8
				c-0.4,0.3-0.8,0.5-1.2,0.8c-0.4,0.3-0.8,0.7-1.1,1.1l0,0l0,0c-0.2,0.2-0.4,0.4-0.5,0.6c-0.1,0.2-0.2,0.3-0.3,0.5
				c-0.1,0.3-0.2,0.5-0.2,0.8c0,0.2,0.2,0.6,0.6,1.1l0,0c0,0,0.1,0.1,0.2,0.2c0.1,0.1,0.1,0.1,0.2,0.2c0.3,0.3,0.6,0.6,1,0.8l0.1,0
				l0,0c0.3,0.2,0.8,0.4,1.5,0.6l0,0c0.1,0,0.2,0,0.3,0.1h0c0.1,0,0.2,0,0.3,0c0.5,0.1,1,0.1,1.4,0.1h0c0.8,0,1.7-0.1,2.6-0.2
				c0.1,0,0.3-0.1,0.5-0.1c0.9-0.2,1.8-0.4,2.8-0.7l0,0c1.7-0.5,2.9-1,3.7-1.7C124,12.7,124.3,12.1,124.3,11.4z"/>
			<path class="st1" d="M131.7,1.6c-1.8,0-3.3,1.5-3.3,3.3c0,1.8,1.5,3.3,3.3,3.3c1.8,0,3.3-1.5,3.3-3.3
				C134.9,3.1,133.5,1.6,131.7,1.6z M131.7,7.7c-1.5,0-2.7-1.2-2.7-2.8c0-1.5,1.2-2.8,2.7-2.8c1.5,0,2.7,1.2,2.7,2.8
				C134.4,6.4,133.2,7.7,131.7,7.7z"/>
			<path class="st1" d="M132.8,6c-0.2-0.3-0.4-0.6-0.6-0.7c-0.1-0.1-0.1-0.1-0.2-0.2c0.6,0,0.9-0.5,0.9-1c0-0.4-0.2-0.7-0.6-0.9
				c-0.2-0.1-0.4-0.1-0.9-0.1h-1.2v3.5h0.6V5.3h0.3c0.2,0,0.4,0,0.5,0.1c0.2,0.2,0.4,0.4,0.6,0.9l0.3,0.6h0.6L132.8,6L132.8,6z
				 M131.5,4.8h-0.7V3.7h0.6c0.4,0,0.9,0,0.9,0.6c0,0.2-0.1,0.3-0.2,0.4C132.1,4.7,131.8,4.8,131.5,4.8z"/>
		</g>
	</g>
</g>
</svg>
